<svg width="30" height="30" viewBox="0 0 30 30" fill="none" xmlns="http://www.w3.org/2000/svg">
<circle cx="15" cy="15" r="15" fill="#943B99"/>
<path d="M22.7908 10.5019C21.5893 8.42097 19.6494 6.93235 17.3283 6.31044C15.0073 5.68846 12.583 6.00764 10.5019 7.20917C8.42086 8.41067 6.93231 10.3506 6.31039 12.6717C5.68848 14.9927 6.00766 17.4171 7.20913 19.4981C8.41056 21.579 10.3505 23.0677 12.6716 23.6896C13.4467 23.8973 14.2331 24 15.0146 24C16.5734 24 18.1119 23.5912 19.4981 22.7909C21.579 21.5894 23.0676 19.6495 23.6896 17.3284C24.3115 15.0073 23.9923 12.583 22.7908 10.5019ZM22.7846 17.0859C22.2274 19.1653 20.8939 20.9032 19.0295 21.9796C17.1653 23.056 14.9934 23.3418 12.914 22.7848C10.8346 22.2276 9.09674 20.8941 8.02036 19.0297C6.94401 17.1655 6.65809 14.9935 7.21528 12.9142C7.77247 10.8348 9.10602 9.09692 10.9703 8.02051C12.2122 7.3035 13.5903 6.93728 14.9869 6.93728C15.6868 6.93728 16.3917 7.02932 17.0858 7.21533C19.1651 7.77248 20.9031 9.10603 21.9794 10.9704C23.0558 12.8347 23.3418 15.0065 22.7846 17.0859Z" fill="white" stroke="white" stroke-width="0.5"/>
<path d="M19.6041 14.0944L13.4343 10.5323C13.1069 10.3433 12.716 10.3434 12.3886 10.5323C12.0612 10.7213 11.8657 11.0599 11.8657 11.4379V18.5622C11.8657 18.9402 12.0612 19.2787 12.3886 19.4678C12.5523 19.5623 12.7318 19.6095 12.9114 19.6095C13.091 19.6095 13.2706 19.5622 13.4343 19.4677L19.6041 15.9057C19.9315 15.7166 20.1269 15.378 20.1269 15C20.1269 14.622 19.9314 14.2834 19.6041 14.0944ZM19.1043 15.0403L12.9346 18.6024C12.927 18.6067 12.9113 18.6158 12.8882 18.6024C12.8651 18.589 12.8651 18.5709 12.8651 18.5622V11.4379C12.8651 11.4292 12.8651 11.4112 12.8882 11.3978C12.8973 11.3925 12.9052 11.3907 12.912 11.3907C12.9225 11.3907 12.93 11.3951 12.9347 11.3978L19.1044 14.9599C19.1119 14.9643 19.1276 14.9733 19.1276 15.0001C19.1276 15.0268 19.1118 15.0359 19.1043 15.0403Z" fill="white" stroke="white" stroke-width="0.5"/>
<path d="M20.4685 11.2344C19.2802 9.69927 17.4938 8.66787 15.5674 8.40466C15.2943 8.36727 15.042 8.55864 15.0046 8.83212C14.9673 9.10554 15.1587 9.35746 15.4321 9.39485C17.1013 9.62289 18.649 10.5164 19.6783 11.8462C19.7768 11.9734 19.9245 12.04 20.0738 12.04C20.1806 12.04 20.2883 12.0059 20.3793 11.9354C20.5975 11.7665 20.6374 11.4527 20.4685 11.2344Z" fill="white" stroke="white" stroke-width="0.5"/>
</svg>
