<svg width="30" height="30" viewBox="0 0 30 30" fill="none" xmlns="http://www.w3.org/2000/svg">
<circle cx="15" cy="15" r="15" fill="#009D00"/>
<path d="M20.7201 13.1941C21.2821 12.4735 21.5776 11.6654 21.5776 10.842C21.5776 8.17211 18.5372 6 14.8001 6C11.0628 6 8.02221 8.17211 8.02221 10.842C8.02221 11.6654 8.31764 12.4735 8.87987 13.1941C7.6654 14.4896 7 16.1245 7 17.8273C7 20.3247 8.45773 22.6727 10.804 23.9552C10.8578 23.9846 10.9192 24 10.9818 24C10.9822 24 10.9827 24 10.9831 24L18.6683 23.973C18.7311 23.9728 18.793 23.9569 18.8467 23.9268C21.197 22.6201 22.6 20.3397 22.6 17.8271C22.5998 16.1241 21.9341 14.4894 20.7201 13.1941ZM18.5682 23.3401L11.078 23.3663C8.98719 22.1882 7.6924 20.074 7.6924 17.8273C7.6924 16.196 8.36334 14.6327 9.58173 13.4253C9.69782 13.3102 9.70451 13.1348 9.59742 13.0126C9.01996 12.3532 8.71461 11.6027 8.71461 10.8422C8.71461 8.52146 11.4445 6.63348 14.8001 6.63348C18.1555 6.63348 20.8852 8.52146 20.8852 10.8422C20.8852 11.6029 20.58 12.3536 20.0026 13.0126C19.8955 13.1348 19.9022 13.3102 20.0183 13.4253C21.2362 14.6325 21.9074 16.1958 21.9076 17.8273C21.9076 20.0877 20.6611 22.142 18.5682 23.3401Z" fill="white" stroke="white" stroke-width="0.5"/>
<path d="M18.3192 11.3998C18.338 11.3998 18.3568 11.3987 18.3756 11.3963C18.452 11.3866 18.519 11.3576 18.562 11.3159C18.8527 11.0333 19.0001 10.7318 19.0001 10.4194C19.0001 9.30586 17.116 8.39993 14.8004 8.39993C12.4848 8.39993 10.6005 9.30586 10.6001 10.4194C10.6001 10.7317 10.7473 11.0333 11.0376 11.3159C11.0804 11.3576 11.1476 11.3866 11.224 11.3963C11.3004 11.4062 11.3798 11.3957 11.4442 11.3676C12.4367 10.9345 13.597 10.7055 14.7998 10.7055C16.0026 10.7055 17.1631 10.9345 18.1554 11.3676C18.2041 11.3886 18.2612 11.3998 18.3192 11.3998ZM11.3798 10.9496C11.2484 10.778 11.1819 10.6002 11.1819 10.4194C11.1823 9.51177 12.8055 8.77341 14.8002 8.77341C16.7951 8.77341 18.4179 9.51177 18.4179 10.4194C18.4179 10.6003 18.3514 10.778 18.2198 10.9498C17.1909 10.5449 16.015 10.332 14.7996 10.332C13.5846 10.3319 12.4088 10.5449 11.3798 10.9496Z" fill="white" stroke="white" stroke-width="0.5"/>
<path d="M14.3868 13C14.1733 13 14 13.1524 14 13.3408C14 13.5291 14.1733 13.6816 14.3868 13.6816C16.7245 13.6816 18.6264 15.3761 18.6264 17.4592C18.6264 17.6473 18.7997 17.8 19.0132 17.8C19.2267 17.8 19.4 17.6473 19.4 17.4592C19.4003 15.0004 17.1512 13 14.3868 13Z" fill="white" stroke="white" stroke-width="0.5"/>
</svg>
