<svg width="30" height="30" viewBox="0 0 30 30" fill="none" xmlns="http://www.w3.org/2000/svg">
<circle cx="15" cy="15" r="15" fill="#00A7E5"/>
<path d="M9.17524 22.1853C8.84168 22.1859 8.50954 22.1419 8.18755 22.0544C7.22107 21.7774 6.4011 21.1309 5.90358 20.2534C5.40606 19.3759 5.27061 18.3374 5.52629 17.3608L7.12442 11.268C7.24888 10.7749 7.47014 10.3118 7.7752 9.90585C8.08027 9.49988 8.46299 9.15926 8.90088 8.904C9.32725 8.65584 9.79838 8.49517 10.287 8.43128C10.7756 8.36739 11.272 8.40157 11.7473 8.53182C12.2527 8.67282 12.7233 8.91778 13.1295 9.25117C13.5356 9.58456 13.8684 9.99911 14.1068 10.4685H15.8901C16.1274 9.99836 16.4599 9.5832 16.8662 9.24969C17.2725 8.91617 17.7437 8.67165 18.2496 8.53182C18.7249 8.40157 19.2213 8.36739 19.7099 8.43128C20.1985 8.49517 20.6697 8.65584 21.096 8.904C21.5318 9.15861 21.9131 9.49736 22.218 9.90073C22.5229 10.3041 22.7453 10.7641 22.8725 11.2543L24.4706 17.3608C24.7301 18.3403 24.5957 19.3831 24.0965 20.2639C23.5973 21.1447 22.7733 21.7928 21.8025 22.0682C21.3271 22.1984 20.8308 22.2326 20.3422 22.1687C19.8536 22.1048 19.3824 21.9441 18.956 21.696C18.5196 21.4423 18.1377 21.1038 17.8327 20.7003C17.5277 20.2968 17.3057 19.8363 17.1796 19.3457L17.0561 18.7392H12.9408L12.783 19.332C12.6569 19.8225 12.4349 20.283 12.1299 20.6865C11.8249 21.09 11.443 21.4285 11.0066 21.6822C10.4493 22.0052 9.81855 22.1785 9.17524 22.1853ZM10.7665 9.77931C10.3526 9.78072 9.94612 9.88996 9.58677 10.0964C9.02355 10.4284 8.61417 10.9711 8.44819 11.6058L6.85006 17.6985C6.68283 18.3262 6.76733 18.9948 7.08541 19.5605C7.40348 20.1263 7.92973 20.5441 8.55107 20.7242C8.85116 20.8064 9.16449 20.8281 9.47295 20.7879C9.7814 20.7476 10.0789 20.6463 10.3481 20.4899C10.6284 20.3272 10.8736 20.1099 11.0691 19.8507C11.2646 19.5915 11.4066 19.2956 11.4867 18.9804L11.9119 17.3608H18.085L18.5034 18.9804C18.5849 19.295 18.7274 19.5903 18.9228 19.8493C19.1182 20.1083 19.3626 20.326 19.6419 20.4899C19.9125 20.6462 20.2111 20.7474 20.5207 20.7876C20.8302 20.8278 21.1446 20.8062 21.4458 20.7242C22.0679 20.5458 22.5948 20.1279 22.9121 19.5614C23.2293 18.9948 23.3112 18.3254 23.14 17.6985L21.5419 11.6058C21.4622 11.2913 21.3212 10.996 21.1269 10.7368C20.9326 10.4777 20.6889 10.26 20.4101 10.0964C20.1396 9.94001 19.841 9.83884 19.5314 9.79863C19.2219 9.75842 18.9075 9.77996 18.6062 9.86202C18.2337 9.96873 17.8919 10.1632 17.6091 10.4293C17.3264 10.6954 17.111 11.0255 16.9807 11.3921L16.8161 11.847H13.1808L13.0162 11.3921C12.8848 11.025 12.6681 10.6947 12.3842 10.4286C12.1003 10.1625 11.7574 9.96828 11.3838 9.86202C11.1825 9.80748 10.975 9.77967 10.7665 9.77931Z" fill="white"/>
<path d="M10.8831 15.2931C10.6118 15.2931 10.3466 15.2123 10.121 15.0608C9.8954 14.9093 9.71957 14.6941 9.61575 14.4422C9.51192 14.1903 9.48475 13.9131 9.53768 13.6458C9.59061 13.3784 9.72126 13.1327 9.91311 12.94C10.105 12.7472 10.3494 12.6159 10.6155 12.5627C10.8816 12.5095 11.1574 12.5368 11.4081 12.6412C11.6587 12.7455 11.873 12.9222 12.0237 13.1489C12.1744 13.3755 12.2549 13.642 12.2549 13.9147C12.2549 14.2803 12.1104 14.6309 11.8531 14.8894C11.5958 15.1479 11.2469 15.2931 10.8831 15.2931Z" fill="white"/>
<path d="M19.1138 13.2254C19.4926 13.2254 19.7997 12.9168 19.7997 12.5362C19.7997 12.1555 19.4926 11.847 19.1138 11.847C18.735 11.847 18.4279 12.1555 18.4279 12.5362C18.4279 12.9168 18.735 13.2254 19.1138 13.2254Z" fill="white"/>
<path d="M19.1138 15.9823C19.4926 15.9823 19.7997 15.6737 19.7997 15.2931C19.7997 14.9124 19.4926 14.6039 19.1138 14.6039C18.735 14.6039 18.4279 14.9124 18.4279 15.2931C18.4279 15.6737 18.735 15.9823 19.1138 15.9823Z" fill="white"/>
<path d="M17.742 14.6039C18.1208 14.6039 18.4279 14.2953 18.4279 13.9147C18.4279 13.534 18.1208 13.2254 17.742 13.2254C17.3632 13.2254 17.0561 13.534 17.0561 13.9147C17.0561 14.2953 17.3632 14.6039 17.742 14.6039Z" fill="white"/>
<path d="M20.4856 14.6039C20.8644 14.6039 21.1715 14.2953 21.1715 13.9147C21.1715 13.534 20.8644 13.2254 20.4856 13.2254C20.1068 13.2254 19.7997 13.534 19.7997 13.9147C19.7997 14.2953 20.1068 14.6039 20.4856 14.6039Z" fill="white"/>
</svg>
