<svg width="134" height="40" viewBox="0 0 134 40" fill="none" xmlns="http://www.w3.org/2000/svg">
<path d="M10.1228 4.43184C11.3016 3.67712 12.3292 3.01618 13.3602 2.36022C14.5279 1.61713 15.6845 0.855015 16.8788 0.156968C17.1426 0.00280995 17.635 -0.0640225 17.8683 0.0788733C20.0713 1.42734 22.2415 2.82934 24.4177 4.22119C24.4866 4.26531 24.5181 4.36704 24.6315 4.54058C24.3987 4.71948 24.1804 4.91444 23.937 5.06989C22.0448 6.27822 20.1359 7.46108 18.2594 8.69324C17.6996 9.06082 17.2639 9.11085 16.6798 8.7261C14.7539 7.45758 12.7916 6.24425 10.8468 5.00379C10.6483 4.87733 10.4747 4.71191 10.1228 4.43184Z" fill="#00A7E5"/>
<path d="M15.6713 10.2986C14.6944 10.9286 13.9047 11.4436 13.1093 11.9495C11.7084 12.8405 10.3176 13.7488 8.88912 14.5936C8.60645 14.7609 8.07555 14.8329 7.82417 14.6797C5.61985 13.3356 3.45237 11.931 1.27675 10.5401C1.20622 10.4951 1.16531 10.4035 1.06128 10.2708C1.25176 10.1131 1.4167 9.94509 1.61032 9.82158C3.58029 8.56505 5.56395 7.33013 7.52207 6.0557C8.05926 5.70603 8.48206 5.70437 9.02444 6.05865C11.1551 7.45032 13.3133 8.79989 15.6713 10.2986Z" fill="#00A7E5"/>
<path d="M19.2095 10.3162C20.299 9.61499 21.1939 9.03454 22.0933 8.46167C23.39 7.63568 24.6753 6.7903 26.0003 6.0125C26.2843 5.8456 26.8148 5.77213 27.0666 5.92554C29.2716 7.26829 31.4398 8.67158 33.616 10.0618C33.6854 10.1061 33.7228 10.2004 33.8183 10.33C33.6256 10.4881 33.4583 10.6564 33.2628 10.7809C31.2658 12.0523 29.272 13.3288 27.2554 14.5687C26.9825 14.7365 26.4864 14.8807 26.2691 14.7485C23.9639 13.3478 21.694 11.889 19.2095 10.3162Z" fill="#00A7E5"/>
<path d="M10.2073 25.9957C11.5649 25.1256 12.8274 24.3136 14.0928 23.5061C15.0009 22.9267 15.9006 22.3321 16.8315 21.7911C17.0901 21.6409 17.5429 21.5004 17.743 21.6224C20.0482 23.0285 22.3218 24.4858 24.7786 26.272C24.5777 26.3524 24.3585 26.4039 24.1788 26.5176C22.1228 27.8162 20.0813 29.1379 18.0105 30.4123C17.753 30.5707 17.2563 30.6389 17.0251 30.4974C14.8462 29.1645 12.7 27.7782 10.5481 26.4015C10.4537 26.3411 10.3957 26.2239 10.2073 25.9957Z" fill="#009D00"/>
<path d="M34.8678 22.1847V24.3608C34.8678 25.4968 34.8946 26.6379 34.8946 27.7658C34.8946 29.3031 34.482 30.118 33.1895 30.8271C33.1806 30.8129 27.579 34.3111 27.5879 34.3253C27.5879 31.7061 27.5764 29.3498 27.6064 26.9942C27.6093 26.7683 27.8181 26.464 28.0203 26.3337" fill="#943B99"/>
<path d="M0.0290286 21.9613C2.48158 23.5259 4.712 24.9403 6.92668 26.3783C7.10402 26.4935 7.2771 26.7714 7.27913 26.9755C7.30375 29.3331 7.29487 31.6911 7.29487 34.1975C6.96629 34.0522 6.74675 33.9858 6.55979 33.8678C4.60871 32.6369 2.65596 31.4085 0.723199 30.1495C0.439608 29.9649 0.0651255 29.6291 0.0592019 29.3559C0.00700026 26.9731 0.0290286 24.5886 0.0290286 21.9613Z" fill="#FFC200"/>
<path d="M0.0170748 11.9979C1.35155 12.8415 2.48592 13.5576 3.61954 14.2754C4.63211 14.9166 5.6667 15.5271 6.64224 16.2206C6.94675 16.4369 7.2694 16.8741 7.27829 17.2183C7.33493 19.3951 7.30679 21.5742 7.30105 23.7525C7.30087 23.8668 7.24885 23.9809 7.19684 24.1945C6.9125 24.0531 6.66668 23.956 6.44695 23.8175C4.57509 22.6378 2.71731 21.4352 0.83379 20.2743C0.251427 19.9156 -0.0143943 19.5027 0.000599777 18.7903C0.0461374 16.6175 0.0170748 14.4429 0.0170748 11.9979Z" fill="#FFC200"/>
<path d="M27.5876 24.3565C27.5876 21.7257 27.5761 19.3703 27.6061 17.0155C27.6091 16.791 27.8192 16.4899 28.021 16.3594C30.1623 14.9738 32.3211 13.615 34.4782 12.2536C34.5463 12.2106 34.648 12.2202 34.8677 12.1818C34.8677 13.2812 34.8679 14.3418 34.8677 15.4023C34.8675 16.5992 34.8875 17.7964 34.8527 18.9922C34.8436 19.3005 34.757 19.7469 34.5447 19.8871C32.3206 21.3568 30.0635 22.7771 27.5876 24.3565Z" fill="#943B99"/>
<path d="M9.31759 27.8614C11.6974 29.3753 13.9052 30.7653 16.0892 32.1917C16.3056 32.3329 16.4927 32.6946 16.4962 32.9564C16.5251 35.1667 16.5101 37.3777 16.4994 39.5883C16.4988 39.6957 16.4157 39.803 16.3339 40C16.0307 39.8362 15.7619 39.7105 15.5129 39.5532C13.6922 38.4041 11.8871 37.2296 10.0508 36.1058C9.45384 35.7404 9.22115 35.3016 9.23522 34.6058C9.27372 32.7027 9.24651 30.7984 9.25114 28.8946C9.25169 28.6267 9.28446 28.359 9.31759 27.8614Z" fill="#FFC200"/>
<path d="M25.6235 28.0295C25.6235 30.4556 25.6374 32.7847 25.6033 35.1134C25.5996 35.3643 25.3762 35.7014 25.1546 35.8459C23.0676 37.2069 20.9594 38.5355 18.8545 39.8686C18.783 39.9138 18.6799 39.909 18.4602 39.9552C18.4283 39.6469 18.3748 39.3635 18.3734 39.0797C18.3639 37.1447 18.3413 35.2092 18.3839 33.2753C18.3922 32.8966 18.5563 32.3599 18.8347 32.1748C20.9342 30.7779 23.0798 29.45 25.214 28.1056C25.283 28.0622 25.3852 28.0714 25.6235 28.0295Z" fill="#943B99"/>
<path d="M9.24762 24.3645C9.24762 22.9121 9.24725 21.7268 9.2478 20.5416C9.24817 19.4673 9.20967 18.3908 9.27316 17.3203C9.29371 16.9764 9.49511 16.5146 9.76593 16.3346C11.8136 14.9736 13.8986 13.6682 15.9757 12.3511C16.0709 12.2907 16.201 12.2854 16.4072 12.2294C16.4474 12.5023 16.5085 12.729 16.5096 12.9561C16.5196 14.9511 16.5388 16.9463 16.5025 18.9406C16.4961 19.2954 16.3493 19.8018 16.0907 19.9739C13.9195 21.4172 11.7072 22.7989 9.24762 24.3645Z" fill="#009D00"/>
<path d="M18.4909 12.0795C20.8635 13.5942 23.0662 14.9914 25.2529 16.4126C25.4299 16.5276 25.6007 16.8066 25.6028 17.0111C25.6272 19.3674 25.6183 21.7239 25.6183 24.2689C25.22 24.0568 24.9564 23.9373 24.7139 23.7843C22.8683 22.6189 21.0368 21.4311 19.1781 20.2866C18.5887 19.9239 18.3353 19.4874 18.3497 18.7879C18.388 16.9164 18.3593 15.0438 18.3697 13.1716C18.3714 12.8634 18.436 12.5557 18.4909 12.0795Z" fill="#009D00"/>
<path d="M68.3657 29.8948H63.6372V18.1053C63.6372 17.7819 63.5765 17.4752 63.4549 17.1863C63.3331 16.8975 63.1621 16.6431 62.942 16.4234C62.7217 16.2041 62.4666 16.0333 62.1771 15.912C61.8872 15.7906 61.5801 15.7298 61.2558 15.7298C60.9311 15.7298 60.6269 15.7906 60.343 15.912C60.059 16.0333 59.8099 16.2041 59.5955 16.4234C59.3809 16.6431 59.2132 16.8975 59.0914 17.1863C58.9696 17.4752 58.9089 17.7819 58.9089 18.1053V29.8948H54.163V18.1053C54.163 17.7819 54.1023 17.4752 53.9805 17.1863C53.8589 16.8975 53.6878 16.6431 53.4679 16.4234C53.2474 16.2041 52.9924 16.0333 52.7028 15.912C52.413 15.7906 52.1059 15.7298 51.7815 15.7298C51.4569 15.7298 51.1527 15.7906 50.8687 15.912C50.5848 16.0333 50.3358 16.2041 50.1213 16.4234C49.9067 16.6431 49.739 16.8975 49.6172 17.1863C49.4956 17.4752 49.4347 17.7819 49.4347 18.1053V29.8948H44.689V11.3263H47.6939V12.3186C48.3544 11.7638 48.5102 11.7627 49.3042 11.4562C50.0979 11.1501 50.9237 10.9967 51.7815 10.9967C52.6506 10.9967 53.4994 11.1588 54.3283 11.4823C55.1569 11.8059 55.884 12.3664 56.5099 13.164C56.7996 12.7713 57.1298 12.4358 57.5009 12.1583C57.8717 11.881 58.2627 11.6556 58.6744 11.4823C59.0855 11.3089 59.5115 11.1848 59.952 11.1095C60.3922 11.0344 60.8267 10.9967 61.2558 10.9967C62.2406 10.9967 63.1648 11.1819 64.0284 11.5517C64.8916 11.9217 65.6451 12.4271 66.2882 13.0685C66.9315 13.7101 67.4383 14.4642 67.8095 15.3312C68.1803 16.1982 68.3657 17.1228 68.3657 18.1053V29.8948Z" fill="white"/>
<path d="M85.0367 20.4456C85.0367 19.6828 84.9121 18.9923 84.6629 18.3736C84.4136 17.7555 84.0746 17.2238 83.6459 16.7787C83.2172 16.3339 82.7161 15.9928 82.1423 15.7559C81.5688 15.5188 80.9572 15.4003 80.3083 15.4003C79.6592 15.4003 79.0479 15.5188 78.4744 15.7559C77.9006 15.9928 77.4023 16.3339 76.9795 16.7787C76.5561 17.2238 76.2231 17.7555 75.9797 18.3736C75.7364 18.9923 75.6148 19.6828 75.6148 20.4456C75.6148 21.1625 75.7364 21.8268 75.9797 22.4395C76.2231 23.0521 76.5561 23.5836 76.9795 24.0344C77.4023 24.4853 77.9006 24.8407 78.4744 25.1008C79.0479 25.3608 79.6592 25.4907 80.3083 25.4907C80.9572 25.4907 81.5688 25.3694 82.1423 25.1267C82.7161 24.8841 83.2172 24.5431 83.6459 24.1037C84.0746 23.6648 84.4136 23.1329 84.6629 22.5087C84.9121 21.8845 85.0367 21.197 85.0367 20.4456ZM89.8172 20.4456C89.8172 21.8327 89.568 23.1243 89.0697 24.3204C88.5714 25.5169 87.8935 26.5514 87.0359 27.4241C86.1781 28.2968 85.1727 28.9843 84.0198 29.4872C82.8664 29.9899 81.6295 30.2414 80.3083 30.2414C78.9987 30.2414 77.7671 29.9899 76.6142 29.4872C75.461 28.9843 74.4527 28.2968 73.5895 27.4241C72.726 26.5514 72.0449 25.5169 71.5468 24.3204C71.0485 23.1243 70.7993 21.8327 70.7993 20.4456C70.7993 19.0355 71.0485 17.7295 71.5468 16.5272C72.0449 15.3254 72.726 14.288 73.5895 13.4151C74.4527 12.5426 75.461 11.8578 76.6142 11.3607C77.7671 10.8638 78.9987 10.6152 80.3083 10.6152C81.6295 10.6152 82.8664 10.8493 84.0198 11.3173C85.1727 11.7855 86.1781 12.4503 87.0359 13.3112C87.8935 14.1724 88.5714 15.207 89.0697 16.4146C89.568 17.6226 89.8172 18.9661 89.8172 20.4456Z" fill="white"/>
<path d="M92.4421 29.8948H97.2227V11.3263H92.4421V29.8948Z" fill="white"/>
<path d="M105.584 29.8948H100.283V11.3263H103.598L103.551 13.528C104.316 12.8346 105.185 12.3001 106.158 11.9244C107.131 11.5489 108.14 11.3608 109.183 11.3608H113.372V16.0767H109.183C108.684 16.0767 108.215 16.1692 107.775 16.354C107.334 16.539 106.952 16.7934 106.628 17.1169C106.303 17.4407 106.048 17.8221 105.862 18.2611C105.677 18.7005 105.584 19.1687 105.584 19.6655V29.8948Z" fill="white"/>
<path d="M128.479 20.4456C128.479 19.7983 128.354 19.1714 128.105 18.5645C127.856 17.9575 127.517 17.4201 127.088 16.9521C126.659 16.4839 126.158 16.1085 125.584 15.8251C125.011 15.5419 124.399 15.4003 123.75 15.4003C123.101 15.4003 122.49 15.5104 121.916 15.7297C121.343 15.9494 120.844 16.273 120.421 16.7006C119.998 17.1284 119.665 17.6571 119.422 18.287C119.178 18.9171 119.057 19.6366 119.057 20.4456C119.057 21.2548 119.178 21.9743 119.422 22.604C119.665 23.2341 119.998 23.7631 120.421 24.1904C120.844 24.6184 121.343 24.9418 121.916 25.1614C122.49 25.3811 123.101 25.4907 123.75 25.4907C124.399 25.4907 125.011 25.3495 125.584 25.0659C126.158 24.7829 126.659 24.4072 127.088 23.9392C127.517 23.471 127.856 22.9336 128.105 22.3267C128.354 21.7199 128.479 21.0931 128.479 20.4456ZM134 29.8946H130.261L130.269 27.346C129.817 27.7507 129.339 28.1291 128.835 28.4816C128.331 28.8344 127.801 29.1405 127.244 29.4004C126.688 29.6605 126.117 29.8658 125.532 30.0159C124.947 30.166 124.353 30.2414 123.75 30.2414C122.441 30.2414 121.209 30.0217 120.056 29.5825C118.903 29.1432 117.895 28.5048 117.031 27.6667C116.168 26.8288 115.487 25.8029 114.989 24.5892C114.491 23.3755 114.241 21.9946 114.241 20.4456C114.241 19.001 114.491 17.6745 114.989 16.4665C115.487 15.2589 116.168 14.2213 117.031 13.3545C117.895 12.4876 118.903 11.8144 120.056 11.3346C121.209 10.8552 122.441 10.6152 123.75 10.6152C124.353 10.6152 124.95 10.6905 125.541 10.8406C126.132 10.9909 126.706 11.1989 127.262 11.4646C127.818 11.7306 128.348 12.0428 128.853 12.401C129.357 12.7593 129.829 13.1465 130.269 13.5626L130.261 11.3607H134V29.8946Z" fill="white"/>
<path d="M92.1206 8.4408H97.4889V3.08682H92.1206V8.4408Z" fill="#00A7E5"/>
</svg>
