<svg width="108" height="80" viewBox="0 0 108 80" fill="none" xmlns="http://www.w3.org/2000/svg">
<path d="M46.4663 4.49382C47.6831 3.72852 48.7437 3.05832 49.808 2.39317C51.0132 1.63967 52.207 0.866877 53.4398 0.159047C53.7121 0.00272942 54.2204 -0.0650387 54.4611 0.0798588C56.7351 1.44722 58.9752 2.86887 61.2214 4.28022C61.2925 4.32496 61.325 4.42811 61.4421 4.60409C61.2017 4.78549 60.9765 4.98318 60.7252 5.14081C58.7721 6.36608 56.8017 7.56551 54.8648 8.81493C54.287 9.18766 53.8373 9.23839 53.2344 8.84825C51.2465 7.56195 49.221 6.33163 47.2136 5.07379C47.0088 4.94555 46.8295 4.77781 46.4663 4.49382Z" fill="#00A7E5"/>
<path d="M52.1933 10.4421C51.1851 11.0809 50.3699 11.6032 49.5489 12.1161C48.1029 13.0196 46.6674 13.9406 45.1929 14.7973C44.9011 14.9669 44.3531 15.0399 44.0936 14.8845C41.8184 13.5217 39.5811 12.0974 37.3354 10.687C37.2626 10.6413 37.2204 10.5485 37.113 10.4139C37.3096 10.254 37.4799 10.0836 37.6798 9.95838C39.7131 8.68425 41.7607 7.43203 43.7818 6.13974C44.3363 5.78517 44.7727 5.78348 45.3325 6.14273C47.5318 7.5539 49.7595 8.92238 52.1933 10.4421Z" fill="#00A7E5"/>
<path d="M55.8452 10.4605C56.9699 9.74952 57.8935 9.16094 58.8219 8.58004C60.1604 7.74248 61.487 6.88526 62.8547 6.09655C63.1478 5.92732 63.6954 5.85281 63.9552 6.00838C66.2313 7.36993 68.4693 8.79289 70.7155 10.2026C70.7872 10.2475 70.8258 10.3432 70.9244 10.4746C70.7255 10.6348 70.5527 10.8056 70.351 10.9317C68.2897 12.221 66.2317 13.5154 64.1501 14.7727C63.8685 14.9428 63.3564 15.089 63.1321 14.955C60.7527 13.5347 58.4098 12.0553 55.8452 10.4605Z" fill="#00A7E5"/>
<path d="M46.5537 26.3588C47.955 25.4765 49.2581 24.6532 50.5643 23.8343C51.5017 23.2469 52.4303 22.6439 53.3912 22.0953C53.6581 21.943 54.1255 21.8005 54.332 21.9242C56.7114 23.35 59.0582 24.8278 61.5941 26.639C61.3868 26.7205 61.1605 26.7727 60.975 26.888C58.8528 28.2048 56.7456 29.5451 54.6081 30.8373C54.3423 30.998 53.8297 31.067 53.5911 30.9236C51.342 29.572 49.1267 28.1663 46.9055 26.7703C46.808 26.7091 46.7482 26.5902 46.5537 26.3588Z" fill="#009D00"/>
<path d="M72.0077 22.4951V24.7017C72.0077 25.8536 72.0354 27.0107 72.0354 28.1543C72.0354 29.7132 71.6095 30.5395 70.2754 31.2586C70.2663 31.2442 64.4843 34.7914 64.4934 34.8058C64.4934 32.1499 64.4816 29.7606 64.5125 27.372C64.5156 27.1429 64.7311 26.8343 64.9398 26.7022" fill="#943B99"/>
<path d="M36.0477 22.2681C38.5792 23.8547 40.8815 25.2889 43.1674 26.747C43.3505 26.8638 43.5291 27.1456 43.5312 27.3526C43.5566 29.7433 43.5475 32.1343 43.5475 34.6758C43.2083 34.5284 42.9817 34.4611 42.7887 34.3414C40.7748 33.0933 38.7592 31.8476 36.7642 30.5711C36.4715 30.3839 36.085 30.0434 36.0789 29.7663C36.025 27.3502 36.0477 24.9322 36.0477 22.2681Z" fill="#FFC200"/>
<path d="M36.0354 12.1659C37.4129 13.0212 38.5838 13.7474 39.7539 14.4753C40.799 15.1254 41.8669 15.7445 42.8739 16.4477C43.1882 16.6671 43.5212 17.1104 43.5304 17.4593C43.5889 19.6667 43.5598 21.8763 43.5539 24.0852C43.5537 24.201 43.5 24.3167 43.4463 24.5333C43.1529 24.3899 42.8991 24.2915 42.6723 24.151C40.7402 22.9548 38.8226 21.7353 36.8785 20.5582C36.2773 20.1944 36.003 19.7758 36.0184 19.0534C36.0654 16.8502 36.0354 14.6451 36.0354 12.1659Z" fill="#FFC200"/>
<path d="M64.4934 24.6978C64.4934 22.0301 64.4816 19.6417 64.5125 17.2539C64.5156 17.0262 64.7325 16.7209 64.9407 16.5885C67.151 15.1835 69.3793 13.8057 71.6059 12.4252C71.6762 12.3816 71.7811 12.3913 72.0079 12.3524C72.0079 13.4672 72.0081 14.5427 72.0079 15.618C72.0077 16.8317 72.0283 18.0457 71.9924 19.2583C71.983 19.5709 71.8936 20.0236 71.6745 20.1657C69.3787 21.656 67.049 23.0962 64.4934 24.6978Z" fill="#943B99"/>
<path d="M45.6354 28.2514C48.0919 29.7865 50.3708 31.196 52.625 32.6423C52.8484 32.7856 53.0416 33.1523 53.0452 33.4177C53.075 35.659 53.0595 37.901 53.0484 40.1426C53.0479 40.2515 52.9621 40.3603 52.8776 40.5601C52.5646 40.394 52.2872 40.2665 52.0302 40.107C50.1508 38.9418 48.2877 37.7508 46.3923 36.6113C45.7761 36.2408 45.5359 35.7958 45.5504 35.0903C45.5902 33.1605 45.5621 31.2295 45.5669 29.299C45.5674 29.0274 45.6012 28.7559 45.6354 28.2514Z" fill="#FFC200"/>
<path d="M62.466 28.4218C62.466 30.8819 62.4803 33.2437 62.4451 35.605C62.4413 35.8594 62.2107 36.2012 61.982 36.3478C59.8278 37.7279 57.6517 39.075 55.4791 40.4268C55.4053 40.4727 55.2989 40.4678 55.0721 40.5146C55.0392 40.202 54.984 39.9147 54.9825 39.6269C54.9727 37.6648 54.9494 35.7021 54.9934 33.7411C55.002 33.3572 55.1713 32.813 55.4586 32.6252C57.6258 31.2088 59.8405 29.8622 62.0433 28.499C62.1146 28.455 62.2201 28.4643 62.466 28.4218Z" fill="#943B99"/>
<path d="M45.5634 24.7054C45.5634 23.2327 45.563 22.0308 45.5636 20.829C45.564 19.7396 45.5242 18.648 45.5898 17.5626C45.611 17.2138 45.8189 16.7456 46.0984 16.5631C48.212 15.183 50.3641 13.8592 52.5081 12.5237C52.6063 12.4625 52.7406 12.4571 52.9535 12.4003C52.9949 12.677 53.058 12.9069 53.0591 13.1372C53.0694 15.1601 53.0893 17.1833 53.0519 19.2055C53.0452 19.5653 52.8937 20.0788 52.6267 20.2533C50.3857 21.7169 48.1022 23.1179 45.5634 24.7054Z" fill="#009D00"/>
<path d="M55.1042 12.2481C57.5531 13.784 59.8267 15.2008 62.0838 16.6419C62.2665 16.7585 62.4428 17.0414 62.4449 17.2488C62.4701 19.6381 62.461 22.0276 62.461 24.6083C62.0498 24.3932 61.7777 24.2721 61.5274 24.1169C59.6224 22.9352 57.732 21.7307 55.8134 20.5702C55.205 20.2024 54.9435 19.7598 54.9584 19.0505C54.9979 17.1528 54.9683 15.2539 54.979 13.3555C54.9807 13.043 55.0474 12.7309 55.1042 12.2481Z" fill="#009D00"/>
<path d="M28.6313 79.588H22.9133V65.5826C22.9133 65.1984 22.8399 64.8341 22.6928 64.4909C22.5455 64.1478 22.3387 63.8456 22.0725 63.5846C21.8061 63.3241 21.4977 63.1212 21.1476 62.9771C20.797 62.8328 20.4257 62.7606 20.0335 62.7606C19.6409 62.7606 19.2731 62.8328 18.9297 62.9771C18.5863 63.1212 18.285 63.3241 18.0258 63.5846C17.7664 63.8456 17.5636 64.1478 17.4163 64.4909C17.269 64.8341 17.1955 65.1984 17.1955 65.5826V79.588H11.4565V65.5826C11.4565 65.1984 11.3831 64.8341 11.2358 64.4909C11.0888 64.1478 10.8819 63.8456 10.616 63.5846C10.3494 63.3241 10.0409 63.1212 9.69082 62.9771C9.34028 62.8328 8.96891 62.7606 8.57673 62.7606C8.1841 62.7606 7.81632 62.8328 7.47294 62.9771C7.12955 63.1212 6.82848 63.3241 6.56904 63.5846C6.3096 63.8456 6.1068 64.1478 5.9595 64.4909C5.81244 64.8341 5.73879 65.1984 5.73879 65.5826V79.588H0V57.5294H3.63372V58.7083C4.43241 58.0492 4.62089 58.0479 5.58098 57.6838C6.54084 57.3202 7.53942 57.1379 8.57673 57.1379C9.6277 57.1379 10.654 57.3305 11.6564 57.7147C12.6584 58.0992 13.5377 58.7651 14.2945 59.7125C14.6448 59.246 15.0441 58.8475 15.493 58.5179C15.9413 58.1885 16.4141 57.9207 16.9119 57.7147C17.4091 57.5088 17.9242 57.3614 18.4569 57.2719C18.9892 57.1827 19.5146 57.1379 20.0335 57.1379C21.2244 57.1379 22.342 57.3579 23.3863 57.7972C24.4301 58.2367 25.3414 58.8372 26.119 59.5991C26.8969 60.3613 27.5098 61.2572 27.9586 62.2871C28.407 63.3171 28.6313 64.4154 28.6313 65.5826V79.588Z" fill="white"/>
<path d="M48.7908 68.3631C48.7908 67.4568 48.6402 66.6366 48.3389 65.9016C48.0373 65.1674 47.6275 64.5357 47.109 64.0069C46.5906 63.4786 45.9847 63.0733 45.2907 62.7919C44.5972 62.5103 43.8577 62.3695 43.0731 62.3695C42.288 62.3695 41.5489 62.5103 40.8554 62.7919C40.1615 63.0733 39.5589 63.4786 39.0476 64.0069C38.5357 64.5357 38.133 65.1674 37.8386 65.9016C37.5445 66.6366 37.3974 67.4568 37.3974 68.3631C37.3974 69.2147 37.5445 70.0038 37.8386 70.7317C38.133 71.4594 38.5357 72.0909 39.0476 72.6264C39.5589 73.162 40.1615 73.5842 40.8554 73.8932C41.5489 74.202 42.288 74.3564 43.0731 74.3564C43.8577 74.3564 44.5972 74.2124 45.2907 73.9239C45.9847 73.6358 46.5906 73.2307 47.109 72.7087C47.6275 72.1874 48.0373 71.5555 48.3389 70.814C48.6402 70.0725 48.7908 69.2557 48.7908 68.3631ZM54.5717 68.3631C54.5717 70.0108 54.2704 71.5452 53.6678 72.9662C53.0652 74.3876 52.2455 75.6164 51.2084 76.6532C50.1711 77.6899 48.9553 78.5066 47.5612 79.1041C46.1664 79.7013 44.6707 80 43.0731 80C41.4893 80 40.0001 79.7013 38.606 79.1041C37.2114 78.5066 35.9921 77.6899 34.9483 76.6532C33.904 75.6164 33.0805 74.3876 32.4781 72.9662C31.8755 71.5452 31.5742 70.0108 31.5742 68.3631C31.5742 66.6879 31.8755 65.1364 32.4781 63.7082C33.0805 62.2804 33.904 61.0481 34.9483 60.0111C35.9921 58.9746 37.2114 58.1612 38.606 57.5705C40.0001 56.9803 41.4893 56.6849 43.0731 56.6849C44.6707 56.6849 46.1664 56.963 47.5612 57.519C48.9553 58.0752 50.1711 58.865 51.2084 59.8876C52.2455 60.9108 53.0652 62.1399 53.6678 63.5744C54.2704 65.0094 54.5717 66.6054 54.5717 68.3631Z" fill="white"/>
<path d="M57.7458 79.588H63.5267V57.5294H57.7458V79.588Z" fill="white"/>
<path d="M73.6386 79.588H67.228V57.5294H71.2362L71.1792 60.145C72.1041 59.3213 73.1551 58.6863 74.3323 58.24C75.5093 57.7939 76.7288 57.5704 77.99 57.5704H83.0561V63.1728H77.99C77.3871 63.1728 76.8197 63.2826 76.2872 63.5022C75.7544 63.7219 75.2921 64.0242 74.9 64.4084C74.5073 64.7931 74.1989 65.2462 73.9748 65.7678C73.7505 66.2897 73.6386 66.8459 73.6386 67.4361V79.588Z" fill="white"/>
<path d="M101.324 68.3631C101.324 67.5941 101.173 66.8493 100.872 66.1284C100.57 65.4073 100.16 64.7688 99.642 64.2129C99.1233 63.6567 98.5174 63.2108 97.8235 62.8741C97.13 62.5377 96.3906 62.3695 95.6058 62.3695C94.8208 62.3695 94.0816 62.5002 93.3881 62.7607C92.6944 63.0217 92.0916 63.4062 91.5803 63.9142C91.0686 64.4223 90.6659 65.0505 90.3713 65.7988C90.0772 66.5473 89.9301 67.402 89.9301 68.3631C89.9301 69.3244 90.0772 70.179 90.3713 70.9271C90.6659 71.6757 91.0686 72.304 91.5803 72.8118C92.0916 73.3202 92.6944 73.7044 93.3881 73.9652C94.0816 74.2262 94.8208 74.3564 95.6058 74.3564C96.3906 74.3564 97.13 74.1887 97.8235 73.8518C98.5174 73.5156 99.1233 73.0693 99.642 72.5133C100.16 71.9571 100.57 71.3186 100.872 70.5977C101.173 69.8768 101.324 69.1322 101.324 68.3631ZM108 79.5881H103.479L103.489 76.5604C102.942 77.0411 102.364 77.4908 101.755 77.9094C101.145 78.3286 100.504 78.6922 99.8312 79.001C99.1585 79.31 98.4679 79.5539 97.7606 79.7322C97.0528 79.9105 96.3344 80 95.6058 80C94.0221 80 92.533 79.739 91.1387 79.2172C89.7443 78.6955 88.5248 77.9371 87.481 76.9414C86.4368 75.9461 85.6132 74.7273 85.0111 73.2855C84.4085 71.8437 84.1072 70.2032 84.1072 68.3631C84.1072 66.6469 84.4085 65.0711 85.0111 63.6361C85.6132 62.2015 86.4368 60.9689 87.481 59.9392C88.5248 58.9093 89.7443 58.1096 91.1387 57.5396C92.533 56.97 94.0221 56.6849 95.6058 56.6849C96.3344 56.6849 97.0563 56.7744 97.7711 56.9527C98.4858 57.1312 99.1795 57.3784 99.8522 57.694C100.525 58.01 101.166 58.3809 101.776 58.8064C102.385 59.2321 102.956 59.692 103.489 60.1864L103.479 57.5705H108V79.5881Z" fill="white"/>
<path d="M57.3574 54.1025H63.849V47.7422H57.3574V54.1025Z" fill="#00A7E5"/>
</svg>
