<svg width="37" height="30" viewBox="0 0 37 30" fill="none" xmlns="http://www.w3.org/2000/svg">
<path fill-rule="evenodd" clip-rule="evenodd" d="M18.5 0C20.0818 0 21.7042 0.0412502 23.2767 0.10875L25.1341 0.19875L26.912 0.305625L28.577 0.42L30.0976 0.54C31.7479 0.668021 33.3008 1.38178 34.4831 2.5557C35.6654 3.72962 36.4014 5.28851 36.5616 6.95813L36.6355 7.755L36.7743 9.46125C36.9038 11.2294 37 13.1569 37 15C37 16.8431 36.9038 18.7706 36.7743 20.5388L36.6355 22.245C36.6115 22.5188 36.5875 22.7831 36.5616 23.0419C36.4013 24.7118 35.6651 26.2709 34.4824 27.4449C33.2997 28.6188 31.7464 29.3324 30.0958 29.46L28.5788 29.5781L26.9138 29.6944L25.1341 29.8012L23.2767 29.8912C21.6854 29.9613 20.0928 29.9976 18.5 30C16.9072 29.9976 15.3146 29.9613 13.7233 29.8912L11.8659 29.8012L10.088 29.6944L8.42305 29.5781L6.90235 29.46C5.25206 29.332 3.69917 28.6182 2.51687 27.4443C1.33458 26.2704 0.598612 24.7115 0.43845 23.0419L0.36445 22.245L0.2257 20.5388C0.0842445 18.6959 0.00896144 16.8484 0 15C0 13.1569 0.0962 11.2294 0.2257 9.46125L0.36445 7.755C0.3885 7.48125 0.41255 7.21688 0.43845 6.95813C0.59855 5.28881 1.33425 3.73015 2.51617 2.55627C3.69809 1.38238 5.25054 0.668442 6.9005 0.54L8.41935 0.42L10.0843 0.305625L11.864 0.19875L13.7214 0.10875C15.3134 0.0386868 16.9066 0.00242866 18.5 0ZM14.8 10.4531V19.5469C14.8 20.4131 15.725 20.9531 16.465 20.5219L24.235 15.975C24.4041 15.8764 24.5445 15.7343 24.6422 15.5631C24.7398 15.392 24.7912 15.1977 24.7912 15C24.7912 14.8023 24.7398 14.608 24.6422 14.4369C24.5445 14.2657 24.4041 14.1236 24.235 14.025L16.465 9.48C16.2962 9.38123 16.1047 9.32925 15.9098 9.32928C15.7149 9.32931 15.5235 9.38136 15.3547 9.48018C15.1859 9.579 15.0458 9.72113 14.9484 9.89225C14.8511 10.0634 14.7999 10.2575 14.8 10.455V10.4531Z" fill="white"/>
</svg>
